<mxfile host="app.diagrams.net" agent="Mozilla/5.0 (Windows NT 10.0; Win64; x64) AppleWebKit/537.36 (KHTML, like Gecko) Chrome/128.0.0.0 Safari/537.36" version="24.7.8" pages="2">
  <diagram id="fhdcG5IZyTClkj3z82EK" name="DIAGRAMA DE SECUENCIA">
    <mxGraphModel dx="3629" dy="1160" grid="0" gridSize="10" guides="1" tooltips="1" connect="1" arrows="1" fold="1" page="0" pageScale="1" pageWidth="827" pageHeight="1169" math="0" shadow="0">
      <root>
        <mxCell id="0" />
        <mxCell id="1" parent="0" />
        <mxCell id="9vS5g6jimfcad7qFYvkA-1" value="REPORTE" style="shape=umlLifeline;perimeter=lifelinePerimeter;whiteSpace=wrap;html=1;container=1;dropTarget=0;collapsible=0;recursiveResize=0;outlineConnect=0;portConstraint=eastwest;newEdgeStyle={&quot;edgeStyle&quot;:&quot;elbowEdgeStyle&quot;,&quot;elbow&quot;:&quot;vertical&quot;,&quot;curved&quot;:0,&quot;rounded&quot;:0};" parent="1" vertex="1">
          <mxGeometry x="-1466" y="171" width="100" height="300" as="geometry" />
        </mxCell>
        <mxCell id="9vS5g6jimfcad7qFYvkA-35" value="PROYECT ADMIN" style="shape=umlLifeline;perimeter=lifelinePerimeter;whiteSpace=wrap;html=1;container=1;dropTarget=0;collapsible=0;recursiveResize=0;outlineConnect=0;portConstraint=eastwest;newEdgeStyle={&quot;edgeStyle&quot;:&quot;elbowEdgeStyle&quot;,&quot;elbow&quot;:&quot;vertical&quot;,&quot;curved&quot;:0,&quot;rounded&quot;:0};" parent="1" vertex="1">
          <mxGeometry x="-1606" y="171" width="100" height="300" as="geometry" />
        </mxCell>
        <mxCell id="9vS5g6jimfcad7qFYvkA-36" value="" style="rounded=0;dashed=0;" parent="1" vertex="1">
          <mxGeometry x="-1561" y="231" width="10" height="230" as="geometry" />
        </mxCell>
        <mxCell id="9vS5g6jimfcad7qFYvkA-40" value="" style="rounded=0;dashed=0;" parent="1" vertex="1">
          <mxGeometry x="-1421" y="234" width="10" height="200" as="geometry" />
        </mxCell>
        <mxCell id="9vS5g6jimfcad7qFYvkA-39" value="&lt;div style=&quot;text-align: left;&quot;&gt;&lt;span style=&quot;font-size: 12px; background-color: rgb(251, 251, 251);&quot;&gt;Generar reporte&lt;/span&gt;&lt;/div&gt;" style="html=1;verticalAlign=bottom;startArrow=oval;startFill=1;endArrow=block;startSize=8;curved=0;rounded=0;" parent="1" target="9vS5g6jimfcad7qFYvkA-1" edge="1">
          <mxGeometry x="-0.0358" width="60" relative="1" as="geometry">
            <mxPoint x="-1551" y="243" as="sourcePoint" />
            <mxPoint x="-1436" y="243" as="targetPoint" />
            <mxPoint as="offset" />
            <Array as="points" />
          </mxGeometry>
        </mxCell>
        <mxCell id="9vS5g6jimfcad7qFYvkA-41" value="&lt;span style=&quot;text-wrap: nowrap;&quot;&gt;NOTIFICACIONES&lt;/span&gt;" style="shape=umlLifeline;perimeter=lifelinePerimeter;whiteSpace=wrap;html=1;container=1;dropTarget=0;collapsible=0;recursiveResize=0;outlineConnect=0;portConstraint=eastwest;newEdgeStyle={&quot;edgeStyle&quot;:&quot;elbowEdgeStyle&quot;,&quot;elbow&quot;:&quot;vertical&quot;,&quot;curved&quot;:0,&quot;rounded&quot;:0};" parent="1" vertex="1">
          <mxGeometry x="-1176" y="171" width="100" height="300" as="geometry" />
        </mxCell>
        <mxCell id="9vS5g6jimfcad7qFYvkA-42" value="" style="rounded=0;dashed=0;" parent="1" vertex="1">
          <mxGeometry x="-1130" y="387" width="10" height="50" as="geometry" />
        </mxCell>
        <mxCell id="9vS5g6jimfcad7qFYvkA-43" value="" style="rounded=0;dashed=0;" parent="1" vertex="1">
          <mxGeometry x="-1120" y="397" width="10" height="35" as="geometry" />
        </mxCell>
        <mxCell id="9vS5g6jimfcad7qFYvkA-44" style="edgeStyle=orthogonalEdgeStyle;rounded=0;orthogonalLoop=1;jettySize=auto;html=1;entryX=1;entryY=0.75;entryDx=0;entryDy=0;" parent="1" source="9vS5g6jimfcad7qFYvkA-43" target="9vS5g6jimfcad7qFYvkA-43" edge="1">
          <mxGeometry relative="1" as="geometry">
            <Array as="points">
              <mxPoint x="-1065" y="414" />
              <mxPoint x="-1065" y="423" />
            </Array>
          </mxGeometry>
        </mxCell>
        <mxCell id="9vS5g6jimfcad7qFYvkA-45" value="&lt;span style=&quot;color: rgba(0, 0, 0, 0); font-family: monospace; font-size: 0px; text-align: start; background-color: rgb(251, 251, 251);&quot;&gt;%3CmxGraphModel%3E%3Croot%3E%3CmxCell%20id%3D%220%22%2F%3E%3CmxCell%20id%3D%221%22%20parent%3D%220%22%2F%3E%3CmxCell%20id%3D%222%22%20value%3D%22enviarNotificacion%22%20style%3D%22text%3Bhtml%3D1%3Balign%3Dcenter%3BverticalAlign%3Dmiddle%3Bresizable%3D0%3Bpoints%3D%5B%5D%3Bautosize%3D1%3BstrokeColor%3Dnone%3BfillColor%3Dnone%3B%22%20vertex%3D%221%22%20parent%3D%221%22%3E%3CmxGeometry%20x%3D%22890%22%20y%3D%22710%22%20width%3D%22120%22%20height%3D%2230%22%20as%3D%22geometry%22%2F%3E%3C%2FmxCell%3E%3C%2Froot%3E%3C%2FmxGraphModel%3E&lt;/span&gt;" style="edgeLabel;html=1;align=center;verticalAlign=middle;resizable=0;points=[];" parent="9vS5g6jimfcad7qFYvkA-44" vertex="1" connectable="0">
          <mxGeometry x="-0.0071" y="-1" relative="1" as="geometry">
            <mxPoint x="21" as="offset" />
          </mxGeometry>
        </mxCell>
        <mxCell id="9vS5g6jimfcad7qFYvkA-46" value="&lt;div style=&quot;text-align: start;&quot;&gt;&lt;font face=&quot;monospace&quot; color=&quot;rgba(0, 0, 0, 0)&quot;&gt;&lt;span style=&quot;font-size: 0px; background-color: rgb(251, 251, 251);&quot;&gt;e&lt;/span&gt;&lt;/font&gt;&lt;/div&gt;" style="edgeLabel;html=1;align=center;verticalAlign=middle;resizable=0;points=[];" parent="9vS5g6jimfcad7qFYvkA-44" vertex="1" connectable="0">
          <mxGeometry x="-0.0338" y="-1" relative="1" as="geometry">
            <mxPoint as="offset" />
          </mxGeometry>
        </mxCell>
        <mxCell id="9vS5g6jimfcad7qFYvkA-47" value="&lt;font style=&quot;font-size: 9px;&quot;&gt;Envio de notificaciones&lt;/font&gt;" style="text;html=1;align=center;verticalAlign=middle;resizable=0;points=[];autosize=1;strokeColor=none;fillColor=none;" parent="1" vertex="1">
          <mxGeometry x="-1076" y="404" width="120" height="30" as="geometry" />
        </mxCell>
        <mxCell id="9vS5g6jimfcad7qFYvkA-54" value="STAKEHOLDER" style="shape=umlLifeline;perimeter=lifelinePerimeter;whiteSpace=wrap;html=1;container=1;dropTarget=0;collapsible=0;recursiveResize=0;outlineConnect=0;portConstraint=eastwest;newEdgeStyle={&quot;edgeStyle&quot;:&quot;elbowEdgeStyle&quot;,&quot;elbow&quot;:&quot;vertical&quot;,&quot;curved&quot;:0,&quot;rounded&quot;:0};" parent="1" vertex="1">
          <mxGeometry x="-1317" y="171" width="100" height="300" as="geometry" />
        </mxCell>
        <mxCell id="9vS5g6jimfcad7qFYvkA-57" value="&lt;div style=&quot;text-align: left;&quot;&gt;&lt;span style=&quot;font-size: 12px;&quot;&gt;Recepcion&lt;/span&gt;&lt;br&gt;&lt;/div&gt;" style="html=1;verticalAlign=bottom;endArrow=block;curved=0;rounded=0;dashed=1;" parent="1" source="9vS5g6jimfcad7qFYvkA-54" edge="1">
          <mxGeometry x="0.0019" relative="1" as="geometry">
            <mxPoint x="-1312" y="361" as="sourcePoint" />
            <mxPoint x="-1411" y="361" as="targetPoint" />
            <mxPoint as="offset" />
          </mxGeometry>
        </mxCell>
        <mxCell id="9vS5g6jimfcad7qFYvkA-55" value="" style="rounded=0;dashed=0;" parent="1" vertex="1">
          <mxGeometry x="-1272" y="291" width="10" height="96" as="geometry" />
        </mxCell>
        <mxCell id="9vS5g6jimfcad7qFYvkA-56" value="&lt;div style=&quot;text-align: left;&quot;&gt;&lt;span style=&quot;font-size: 12px; background-color: rgb(251, 251, 251);&quot;&gt;Recibe reporte&lt;/span&gt;&lt;/div&gt;" style="html=1;verticalAlign=bottom;startArrow=oval;startFill=1;endArrow=block;startSize=8;curved=0;rounded=0;entryX=0.76;entryY=0.108;entryDx=0;entryDy=0;entryPerimeter=0;" parent="1" target="9vS5g6jimfcad7qFYvkA-55" edge="1">
          <mxGeometry x="-0.0358" width="60" relative="1" as="geometry">
            <mxPoint x="-1411" y="303" as="sourcePoint" />
            <mxPoint x="-1276" y="303" as="targetPoint" />
            <mxPoint as="offset" />
            <Array as="points" />
          </mxGeometry>
        </mxCell>
        <mxCell id="W1MTfGtmVv7gc5mt9Ltq-1" value="&lt;div style=&quot;text-align: left;&quot;&gt;&lt;span style=&quot;font-size: 12px; background-color: rgb(251, 251, 251);&quot;&gt;notificarAsignacion&lt;/span&gt;&lt;br&gt;&lt;/div&gt;" style="html=1;verticalAlign=bottom;startArrow=oval;startFill=1;endArrow=block;startSize=8;curved=0;rounded=0;exitX=1.459;exitY=0.885;exitDx=0;exitDy=0;exitPerimeter=0;" edge="1" parent="1" source="9vS5g6jimfcad7qFYvkA-40" target="9vS5g6jimfcad7qFYvkA-41">
          <mxGeometry x="-0.0345" width="60" relative="1" as="geometry">
            <mxPoint x="-1489" y="411.40999999999997" as="sourcePoint" />
            <mxPoint x="-1315.7647202435662" y="411.40999999999997" as="targetPoint" />
            <mxPoint as="offset" />
          </mxGeometry>
        </mxCell>
      </root>
    </mxGraphModel>
  </diagram>
  <diagram id="NMWSIY97-p-URcxWwJ0Z" name="DIAGRAMA DE ACTVIDADES">
    <mxGraphModel dx="5687" dy="5080" grid="0" gridSize="10" guides="1" tooltips="1" connect="1" arrows="1" fold="1" page="0" pageScale="1" pageWidth="827" pageHeight="1169" math="0" shadow="0">
      <root>
        <mxCell id="0" />
        <mxCell id="1" parent="0" />
        <mxCell id="xB_TFtDht3u8J4cwP4Hv-1" value="&lt;font style=&quot;font-size: 24px;&quot;&gt;SSAP&lt;/font&gt;" style="swimlane;horizontal=0;whiteSpace=wrap;html=1;" parent="1" vertex="1">
          <mxGeometry x="-409" y="-717" width="1795" height="571" as="geometry" />
        </mxCell>
        <mxCell id="xB_TFtDht3u8J4cwP4Hv-2" value="Genera el reporte" style="rounded=1;whiteSpace=wrap;html=1;" parent="xB_TFtDht3u8J4cwP4Hv-1" vertex="1">
          <mxGeometry x="397" y="246" width="120" height="60" as="geometry" />
        </mxCell>
        <mxCell id="xB_TFtDht3u8J4cwP4Hv-3" style="edgeStyle=orthogonalEdgeStyle;rounded=0;orthogonalLoop=1;jettySize=auto;html=1;entryX=0;entryY=0.5;entryDx=0;entryDy=0;" parent="xB_TFtDht3u8J4cwP4Hv-1" source="xB_TFtDht3u8J4cwP4Hv-7" target="xB_TFtDht3u8J4cwP4Hv-2" edge="1">
          <mxGeometry relative="1" as="geometry" />
        </mxCell>
        <mxCell id="xB_TFtDht3u8J4cwP4Hv-4" value="SI" style="edgeLabel;html=1;align=center;verticalAlign=middle;resizable=0;points=[];" parent="xB_TFtDht3u8J4cwP4Hv-3" vertex="1" connectable="0">
          <mxGeometry x="-0.3249" y="-2" relative="1" as="geometry">
            <mxPoint x="1" as="offset" />
          </mxGeometry>
        </mxCell>
        <mxCell id="xB_TFtDht3u8J4cwP4Hv-5" style="edgeStyle=orthogonalEdgeStyle;rounded=0;orthogonalLoop=1;jettySize=auto;html=1;entryX=0;entryY=0.5;entryDx=0;entryDy=0;" parent="xB_TFtDht3u8J4cwP4Hv-1" source="xB_TFtDht3u8J4cwP4Hv-7" target="xB_TFtDht3u8J4cwP4Hv-9" edge="1">
          <mxGeometry relative="1" as="geometry">
            <Array as="points">
              <mxPoint x="325" y="347" />
              <mxPoint x="325" y="347" />
            </Array>
          </mxGeometry>
        </mxCell>
        <mxCell id="xB_TFtDht3u8J4cwP4Hv-6" value="NO" style="edgeLabel;html=1;align=center;verticalAlign=middle;resizable=0;points=[];" parent="xB_TFtDht3u8J4cwP4Hv-5" vertex="1" connectable="0">
          <mxGeometry x="-0.1984" y="-2" relative="1" as="geometry">
            <mxPoint as="offset" />
          </mxGeometry>
        </mxCell>
        <mxCell id="xB_TFtDht3u8J4cwP4Hv-7" value="Tiene permiso&lt;br&gt;&amp;nbsp;para generar reporte" style="rhombus;whiteSpace=wrap;html=1;" parent="xB_TFtDht3u8J4cwP4Hv-1" vertex="1">
          <mxGeometry x="122" y="198" width="158" height="156" as="geometry" />
        </mxCell>
        <mxCell id="xB_TFtDht3u8J4cwP4Hv-8" style="edgeStyle=orthogonalEdgeStyle;rounded=0;orthogonalLoop=1;jettySize=auto;html=1;" parent="xB_TFtDht3u8J4cwP4Hv-1" source="xB_TFtDht3u8J4cwP4Hv-9" edge="1">
          <mxGeometry relative="1" as="geometry">
            <mxPoint x="1549" y="-159" as="targetPoint" />
            <Array as="points">
              <mxPoint x="613" y="-162" />
            </Array>
          </mxGeometry>
        </mxCell>
        <mxCell id="xB_TFtDht3u8J4cwP4Hv-9" value="Mensaje de acceso denegado" style="rounded=1;whiteSpace=wrap;html=1;" parent="xB_TFtDht3u8J4cwP4Hv-1" vertex="1">
          <mxGeometry x="553" y="317" width="120" height="60" as="geometry" />
        </mxCell>
        <mxCell id="xB_TFtDht3u8J4cwP4Hv-10" value="&lt;font style=&quot;font-size: 24px;&quot;&gt;Administrador&lt;/font&gt;" style="swimlane;horizontal=0;whiteSpace=wrap;html=1;" parent="1" vertex="1">
          <mxGeometry x="-409" y="-1288" width="1795" height="571" as="geometry" />
        </mxCell>
        <mxCell id="xB_TFtDht3u8J4cwP4Hv-11" style="edgeStyle=orthogonalEdgeStyle;rounded=0;orthogonalLoop=1;jettySize=auto;html=1;" parent="xB_TFtDht3u8J4cwP4Hv-10" source="xB_TFtDht3u8J4cwP4Hv-12" target="xB_TFtDht3u8J4cwP4Hv-14" edge="1">
          <mxGeometry relative="1" as="geometry" />
        </mxCell>
        <mxCell id="xB_TFtDht3u8J4cwP4Hv-12" value="" style="ellipse;whiteSpace=wrap;html=1;aspect=fixed;" parent="xB_TFtDht3u8J4cwP4Hv-10" vertex="1">
          <mxGeometry x="79" y="68" width="80" height="80" as="geometry" />
        </mxCell>
        <mxCell id="xB_TFtDht3u8J4cwP4Hv-13" style="edgeStyle=orthogonalEdgeStyle;rounded=0;orthogonalLoop=1;jettySize=auto;html=1;entryX=0;entryY=0.5;entryDx=0;entryDy=0;" parent="xB_TFtDht3u8J4cwP4Hv-10" source="xB_TFtDht3u8J4cwP4Hv-14" target="xB_TFtDht3u8J4cwP4Hv-16" edge="1">
          <mxGeometry relative="1" as="geometry" />
        </mxCell>
        <mxCell id="xB_TFtDht3u8J4cwP4Hv-14" value="Iniciar sesión" style="rounded=1;whiteSpace=wrap;html=1;" parent="xB_TFtDht3u8J4cwP4Hv-10" vertex="1">
          <mxGeometry x="210" y="78" width="120" height="60" as="geometry" />
        </mxCell>
        <mxCell id="xB_TFtDht3u8J4cwP4Hv-15" style="edgeStyle=orthogonalEdgeStyle;rounded=0;orthogonalLoop=1;jettySize=auto;html=1;entryX=0;entryY=0.5;entryDx=0;entryDy=0;" parent="xB_TFtDht3u8J4cwP4Hv-10" source="xB_TFtDht3u8J4cwP4Hv-16" target="xB_TFtDht3u8J4cwP4Hv-18" edge="1">
          <mxGeometry relative="1" as="geometry" />
        </mxCell>
        <mxCell id="xB_TFtDht3u8J4cwP4Hv-16" value="Accede a interfas de exportación" style="rounded=1;whiteSpace=wrap;html=1;" parent="xB_TFtDht3u8J4cwP4Hv-10" vertex="1">
          <mxGeometry x="381" y="78" width="120" height="60" as="geometry" />
        </mxCell>
        <mxCell id="xB_TFtDht3u8J4cwP4Hv-17" style="edgeStyle=orthogonalEdgeStyle;rounded=0;orthogonalLoop=1;jettySize=auto;html=1;entryX=0;entryY=0.5;entryDx=0;entryDy=0;" parent="xB_TFtDht3u8J4cwP4Hv-10" source="xB_TFtDht3u8J4cwP4Hv-18" target="xB_TFtDht3u8J4cwP4Hv-19" edge="1">
          <mxGeometry relative="1" as="geometry" />
        </mxCell>
        <mxCell id="xB_TFtDht3u8J4cwP4Hv-18" value="Selecciona la opción de generación de reporte" style="rounded=1;whiteSpace=wrap;html=1;" parent="xB_TFtDht3u8J4cwP4Hv-10" vertex="1">
          <mxGeometry x="576" y="78" width="120" height="60" as="geometry" />
        </mxCell>
        <mxCell id="xB_TFtDht3u8J4cwP4Hv-19" value="Elige el ripo de reporte" style="rounded=1;whiteSpace=wrap;html=1;" parent="xB_TFtDht3u8J4cwP4Hv-10" vertex="1">
          <mxGeometry x="761" y="78" width="120" height="60" as="geometry" />
        </mxCell>
        <mxCell id="xB_TFtDht3u8J4cwP4Hv-20" style="edgeStyle=orthogonalEdgeStyle;rounded=0;orthogonalLoop=1;jettySize=auto;html=1;" parent="xB_TFtDht3u8J4cwP4Hv-10" source="xB_TFtDht3u8J4cwP4Hv-21" target="xB_TFtDht3u8J4cwP4Hv-23" edge="1">
          <mxGeometry relative="1" as="geometry" />
        </mxCell>
        <mxCell id="xB_TFtDht3u8J4cwP4Hv-21" value="Define periodo de exportación&lt;span style=&quot;color: rgba(0, 0, 0, 0); font-family: monospace; font-size: 0px; text-align: start; text-wrap: nowrap;&quot;&gt;%3CmxGraphModel%3E%3Croot%3E%3CmxCell%20id%3D%220%22%2F%3E%3CmxCell%20id%3D%221%22%20parent%3D%220%22%2F%3E%3CmxCell%20id%3D%222%22%20value%3D%22Selecciona%20la%20opci%C3%B3n%20de%20generaci%C3%B3n%20de%20reporte%22%20style%3D%22rounded%3D1%3BwhiteSpace%3Dwrap%3Bhtml%3D1%3B%22%20vertex%3D%221%22%20parent%3D%221%22%3E%3CmxGeometry%20x%3D%22478%22%20y%3D%22-1228%22%20width%3D%22120%22%20height%3D%2260%22%20as%3D%22geometry%22%2F%3E%3C%2FmxCell%3E%3C%2Froot%3E%3C%2FmxGraphModel%3E&lt;/span&gt;" style="rounded=1;whiteSpace=wrap;html=1;" parent="xB_TFtDht3u8J4cwP4Hv-10" vertex="1">
          <mxGeometry x="1064" y="78" width="120" height="60" as="geometry" />
        </mxCell>
        <mxCell id="xB_TFtDht3u8J4cwP4Hv-22" style="edgeStyle=orthogonalEdgeStyle;rounded=0;orthogonalLoop=1;jettySize=auto;html=1;" parent="xB_TFtDht3u8J4cwP4Hv-10" source="xB_TFtDht3u8J4cwP4Hv-23" edge="1">
          <mxGeometry relative="1" as="geometry">
            <mxPoint x="1549" y="373" as="targetPoint" />
            <Array as="points">
              <mxPoint x="1443" y="108" />
              <mxPoint x="1443" y="373" />
            </Array>
          </mxGeometry>
        </mxCell>
        <mxCell id="xB_TFtDht3u8J4cwP4Hv-23" value="Define periodo de exportación&lt;span style=&quot;color: rgba(0, 0, 0, 0); font-family: monospace; font-size: 0px; text-align: start; text-wrap: nowrap;&quot;&gt;%3CmxGraphModel%3E%3Croot%3E%3CmxCell%20id%3D%220%22%2F%3E%3CmxCell%20id%3D%221%22%20parent%3D%220%22%2F%3E%3CmxCell%20id%3D%222%22%20value%3D%22Selecciona%20la%20opci%C3%B3n%20de%20generaci%C3%B3n%20de%20reporte%22%20style%3D%22rounded%3D1%3BwhiteSpace%3Dwrap%3Bhtml%3D1%3B%22%20vertex%3D%221%22%20parent%3D%221%22%3E%3CmxGeometry%20x%3D%22478%22%20y%3D%22-1228%22%20width%3D%22120%22%20height%3D%2260%22%20as%3D%22geometry%22%2F%3E%3C%2FmxCell%3E%3C%2Froot%3E%3C%2FmxGraphModel%3E&lt;/span&gt;" style="rounded=1;whiteSpace=wrap;html=1;" parent="xB_TFtDht3u8J4cwP4Hv-10" vertex="1">
          <mxGeometry x="1260" y="78" width="120" height="60" as="geometry" />
        </mxCell>
        <mxCell id="xB_TFtDht3u8J4cwP4Hv-24" value="" style="ellipse;shape=doubleEllipse;whiteSpace=wrap;html=1;aspect=fixed;" parent="xB_TFtDht3u8J4cwP4Hv-10" vertex="1">
          <mxGeometry x="1633" y="349" width="80" height="80" as="geometry" />
        </mxCell>
        <mxCell id="xB_TFtDht3u8J4cwP4Hv-25" value="" style="endArrow=none;html=1;rounded=0;strokeWidth=9;" parent="xB_TFtDht3u8J4cwP4Hv-10" edge="1">
          <mxGeometry width="50" height="50" relative="1" as="geometry">
            <mxPoint x="1554" y="352" as="sourcePoint" />
            <mxPoint x="1554" y="461" as="targetPoint" />
          </mxGeometry>
        </mxCell>
        <mxCell id="xB_TFtDht3u8J4cwP4Hv-26" value="" style="endArrow=classic;html=1;rounded=0;entryX=0;entryY=0.5;entryDx=0;entryDy=0;" parent="xB_TFtDht3u8J4cwP4Hv-10" target="xB_TFtDht3u8J4cwP4Hv-24" edge="1">
          <mxGeometry width="50" height="50" relative="1" as="geometry">
            <mxPoint x="1554" y="389" as="sourcePoint" />
            <mxPoint x="1410" y="376" as="targetPoint" />
          </mxGeometry>
        </mxCell>
        <mxCell id="xB_TFtDht3u8J4cwP4Hv-27" style="edgeStyle=orthogonalEdgeStyle;rounded=0;orthogonalLoop=1;jettySize=auto;html=1;entryX=0.5;entryY=0;entryDx=0;entryDy=0;" parent="1" source="xB_TFtDht3u8J4cwP4Hv-28" target="xB_TFtDht3u8J4cwP4Hv-7" edge="1">
          <mxGeometry relative="1" as="geometry">
            <Array as="points">
              <mxPoint x="558" y="-1122" />
              <mxPoint x="-208" y="-1122" />
            </Array>
          </mxGeometry>
        </mxCell>
        <mxCell id="xB_TFtDht3u8J4cwP4Hv-28" value="Define periodo de exportación&lt;span style=&quot;color: rgba(0, 0, 0, 0); font-family: monospace; font-size: 0px; text-align: start; text-wrap: nowrap;&quot;&gt;%3CmxGraphModel%3E%3Croot%3E%3CmxCell%20id%3D%220%22%2F%3E%3CmxCell%20id%3D%221%22%20parent%3D%220%22%2F%3E%3CmxCell%20id%3D%222%22%20value%3D%22Selecciona%20la%20opci%C3%B3n%20de%20generaci%C3%B3n%20de%20reporte%22%20style%3D%22rounded%3D1%3BwhiteSpace%3Dwrap%3Bhtml%3D1%3B%22%20vertex%3D%221%22%20parent%3D%221%22%3E%3CmxGeometry%20x%3D%22478%22%20y%3D%22-1228%22%20width%3D%22120%22%20height%3D%2260%22%20as%3D%22geometry%22%2F%3E%3C%2FmxCell%3E%3C%2Froot%3E%3C%2FmxGraphModel%3E&lt;/span&gt;" style="rounded=1;whiteSpace=wrap;html=1;" parent="1" vertex="1">
          <mxGeometry x="498" y="-1208" width="120" height="60" as="geometry" />
        </mxCell>
        <mxCell id="xB_TFtDht3u8J4cwP4Hv-29" style="edgeStyle=orthogonalEdgeStyle;rounded=0;orthogonalLoop=1;jettySize=auto;html=1;entryX=0.5;entryY=1;entryDx=0;entryDy=0;" parent="1" source="xB_TFtDht3u8J4cwP4Hv-2" target="xB_TFtDht3u8J4cwP4Hv-21" edge="1">
          <mxGeometry relative="1" as="geometry">
            <Array as="points">
              <mxPoint x="-58" y="-584" />
              <mxPoint x="-58" y="-1062" />
              <mxPoint x="715" y="-1062" />
            </Array>
          </mxGeometry>
        </mxCell>
        <mxCell id="xB_TFtDht3u8J4cwP4Hv-30" value="&lt;font style=&quot;font-size: 24px;&quot;&gt;Sistema&lt;/font&gt;" style="swimlane;horizontal=0;whiteSpace=wrap;html=1;" parent="1" vertex="1">
          <mxGeometry x="-400" y="623" width="1795" height="571" as="geometry" />
        </mxCell>
        <mxCell id="xB_TFtDht3u8J4cwP4Hv-31" style="edgeStyle=orthogonalEdgeStyle;rounded=0;orthogonalLoop=1;jettySize=auto;html=1;entryX=0;entryY=0.5;entryDx=0;entryDy=0;" parent="xB_TFtDht3u8J4cwP4Hv-30" source="xB_TFtDht3u8J4cwP4Hv-33" target="xB_TFtDht3u8J4cwP4Hv-35" edge="1">
          <mxGeometry relative="1" as="geometry">
            <Array as="points">
              <mxPoint x="494" y="238" />
              <mxPoint x="494" y="238" />
            </Array>
          </mxGeometry>
        </mxCell>
        <mxCell id="xB_TFtDht3u8J4cwP4Hv-32" value="NO" style="edgeLabel;html=1;align=center;verticalAlign=middle;resizable=0;points=[];" parent="xB_TFtDht3u8J4cwP4Hv-31" vertex="1" connectable="0">
          <mxGeometry x="-0.1984" y="-2" relative="1" as="geometry">
            <mxPoint as="offset" />
          </mxGeometry>
        </mxCell>
        <mxCell id="xB_TFtDht3u8J4cwP4Hv-33" value="Tiene permiso&lt;br&gt;&amp;nbsp;para generar reporte" style="rhombus;whiteSpace=wrap;html=1;" parent="xB_TFtDht3u8J4cwP4Hv-30" vertex="1">
          <mxGeometry x="291" y="89" width="158" height="156" as="geometry" />
        </mxCell>
        <mxCell id="xB_TFtDht3u8J4cwP4Hv-34" style="edgeStyle=orthogonalEdgeStyle;rounded=0;orthogonalLoop=1;jettySize=auto;html=1;" parent="xB_TFtDht3u8J4cwP4Hv-30" source="xB_TFtDht3u8J4cwP4Hv-35" edge="1">
          <mxGeometry relative="1" as="geometry">
            <mxPoint x="1505" y="-251" as="targetPoint" />
            <Array as="points">
              <mxPoint x="1345" y="238" />
              <mxPoint x="1345" y="-251" />
            </Array>
          </mxGeometry>
        </mxCell>
        <mxCell id="xB_TFtDht3u8J4cwP4Hv-35" value="Mensaje de acceso denegado" style="rounded=1;whiteSpace=wrap;html=1;" parent="xB_TFtDht3u8J4cwP4Hv-30" vertex="1">
          <mxGeometry x="722" y="208" width="120" height="60" as="geometry" />
        </mxCell>
        <mxCell id="xB_TFtDht3u8J4cwP4Hv-36" value="&lt;font style=&quot;font-size: 24px;&quot;&gt;Stakeholder&lt;/font&gt;" style="swimlane;horizontal=0;whiteSpace=wrap;html=1;" parent="1" vertex="1">
          <mxGeometry x="-400" y="52" width="1795" height="571" as="geometry" />
        </mxCell>
        <mxCell id="xB_TFtDht3u8J4cwP4Hv-37" style="edgeStyle=orthogonalEdgeStyle;rounded=0;orthogonalLoop=1;jettySize=auto;html=1;" parent="xB_TFtDht3u8J4cwP4Hv-36" source="xB_TFtDht3u8J4cwP4Hv-38" target="xB_TFtDht3u8J4cwP4Hv-40" edge="1">
          <mxGeometry relative="1" as="geometry" />
        </mxCell>
        <mxCell id="xB_TFtDht3u8J4cwP4Hv-38" value="" style="ellipse;whiteSpace=wrap;html=1;aspect=fixed;" parent="xB_TFtDht3u8J4cwP4Hv-36" vertex="1">
          <mxGeometry x="99" y="106" width="80" height="80" as="geometry" />
        </mxCell>
        <mxCell id="xB_TFtDht3u8J4cwP4Hv-39" style="edgeStyle=orthogonalEdgeStyle;rounded=0;orthogonalLoop=1;jettySize=auto;html=1;entryX=0;entryY=0.5;entryDx=0;entryDy=0;" parent="xB_TFtDht3u8J4cwP4Hv-36" source="xB_TFtDht3u8J4cwP4Hv-40" target="xB_TFtDht3u8J4cwP4Hv-41" edge="1">
          <mxGeometry relative="1" as="geometry" />
        </mxCell>
        <mxCell id="xB_TFtDht3u8J4cwP4Hv-40" value="Iniciar sesión" style="rounded=1;whiteSpace=wrap;html=1;" parent="xB_TFtDht3u8J4cwP4Hv-36" vertex="1">
          <mxGeometry x="230" y="116" width="120" height="60" as="geometry" />
        </mxCell>
        <mxCell id="xB_TFtDht3u8J4cwP4Hv-41" value="&lt;span style=&quot;font-size:11.0pt;line-height:107%;&lt;br/&gt;font-family:&amp;quot;Calibri&amp;quot;,sans-serif;mso-ascii-theme-font:minor-latin;mso-fareast-font-family:&lt;br/&gt;Calibri;mso-fareast-theme-font:minor-latin;mso-hansi-theme-font:minor-latin;&lt;br/&gt;mso-bidi-font-family:Arial;mso-bidi-theme-font:minor-bidi;mso-ansi-language:&lt;br/&gt;ES-GT;mso-fareast-language:EN-US;mso-bidi-language:AR-SA&quot;&gt;Acceder a la sección&lt;br/&gt;de reportes del proyecto&lt;/span&gt;" style="rounded=1;whiteSpace=wrap;html=1;" parent="xB_TFtDht3u8J4cwP4Hv-36" vertex="1">
          <mxGeometry x="425" y="116" width="120" height="60" as="geometry" />
        </mxCell>
        <mxCell id="xB_TFtDht3u8J4cwP4Hv-42" value="" style="edgeStyle=orthogonalEdgeStyle;rounded=0;orthogonalLoop=1;jettySize=auto;html=1;" parent="xB_TFtDht3u8J4cwP4Hv-36" source="xB_TFtDht3u8J4cwP4Hv-43" target="xB_TFtDht3u8J4cwP4Hv-45" edge="1">
          <mxGeometry relative="1" as="geometry" />
        </mxCell>
        <mxCell id="xB_TFtDht3u8J4cwP4Hv-43" value="&lt;span style=&quot;font-size: 14.6667px;&quot;&gt;Visualiza el reporte&lt;/span&gt;" style="rounded=1;whiteSpace=wrap;html=1;" parent="xB_TFtDht3u8J4cwP4Hv-36" vertex="1">
          <mxGeometry x="632" y="116" width="120" height="60" as="geometry" />
        </mxCell>
        <mxCell id="xB_TFtDht3u8J4cwP4Hv-44" style="edgeStyle=orthogonalEdgeStyle;rounded=0;orthogonalLoop=1;jettySize=auto;html=1;" parent="xB_TFtDht3u8J4cwP4Hv-36" source="xB_TFtDht3u8J4cwP4Hv-45" edge="1">
          <mxGeometry relative="1" as="geometry">
            <mxPoint x="1510" y="291" as="targetPoint" />
            <Array as="points">
              <mxPoint x="1345" y="146" />
              <mxPoint x="1345" y="291" />
            </Array>
          </mxGeometry>
        </mxCell>
        <mxCell id="xB_TFtDht3u8J4cwP4Hv-45" value="&lt;span style=&quot;font-size: 14.6667px;&quot;&gt;Descarga el reporte&lt;/span&gt;" style="rounded=1;whiteSpace=wrap;html=1;" parent="xB_TFtDht3u8J4cwP4Hv-36" vertex="1">
          <mxGeometry x="835" y="116" width="120" height="60" as="geometry" />
        </mxCell>
        <mxCell id="xB_TFtDht3u8J4cwP4Hv-46" value="" style="ellipse;shape=doubleEllipse;whiteSpace=wrap;html=1;aspect=fixed;" parent="xB_TFtDht3u8J4cwP4Hv-36" vertex="1">
          <mxGeometry x="1600" y="272" width="80" height="80" as="geometry" />
        </mxCell>
        <mxCell id="xB_TFtDht3u8J4cwP4Hv-47" value="" style="endArrow=none;html=1;rounded=0;strokeWidth=9;" parent="xB_TFtDht3u8J4cwP4Hv-36" edge="1">
          <mxGeometry width="50" height="50" relative="1" as="geometry">
            <mxPoint x="1514" y="254" as="sourcePoint" />
            <mxPoint x="1514" y="363" as="targetPoint" />
          </mxGeometry>
        </mxCell>
        <mxCell id="xB_TFtDht3u8J4cwP4Hv-48" value="" style="endArrow=classic;html=1;rounded=0;entryX=0;entryY=0.5;entryDx=0;entryDy=0;" parent="xB_TFtDht3u8J4cwP4Hv-36" target="xB_TFtDht3u8J4cwP4Hv-46" edge="1">
          <mxGeometry width="50" height="50" relative="1" as="geometry">
            <mxPoint x="1514" y="313" as="sourcePoint" />
            <mxPoint x="1370" y="278" as="targetPoint" />
          </mxGeometry>
        </mxCell>
        <mxCell id="xB_TFtDht3u8J4cwP4Hv-49" style="edgeStyle=orthogonalEdgeStyle;rounded=0;orthogonalLoop=1;jettySize=auto;html=1;entryX=0.5;entryY=1;entryDx=0;entryDy=0;" parent="1" source="xB_TFtDht3u8J4cwP4Hv-33" target="xB_TFtDht3u8J4cwP4Hv-43" edge="1">
          <mxGeometry relative="1" as="geometry">
            <mxPoint x="372" y="353" as="targetPoint" />
          </mxGeometry>
        </mxCell>
        <mxCell id="xB_TFtDht3u8J4cwP4Hv-50" value="SI" style="edgeLabel;html=1;align=center;verticalAlign=middle;resizable=0;points=[];" parent="xB_TFtDht3u8J4cwP4Hv-49" vertex="1" connectable="0">
          <mxGeometry x="-0.3249" y="-2" relative="1" as="geometry">
            <mxPoint x="1" as="offset" />
          </mxGeometry>
        </mxCell>
        <mxCell id="xB_TFtDht3u8J4cwP4Hv-51" value="" style="edgeStyle=orthogonalEdgeStyle;rounded=0;orthogonalLoop=1;jettySize=auto;html=1;entryX=0.5;entryY=0;entryDx=0;entryDy=0;" parent="1" source="xB_TFtDht3u8J4cwP4Hv-41" target="xB_TFtDht3u8J4cwP4Hv-33" edge="1">
          <mxGeometry relative="1" as="geometry" />
        </mxCell>
        <mxCell id="wc70yV6YJI5TDV-RJmFz-52" value="&lt;span style=&quot;font-size: 24px;&quot;&gt;REPORTE&lt;/span&gt;" style="swimlane;horizontal=0;whiteSpace=wrap;html=1;startSize=23;" vertex="1" parent="1">
          <mxGeometry x="-371" y="2026" width="2932" height="571" as="geometry" />
        </mxCell>
        <mxCell id="wc70yV6YJI5TDV-RJmFz-95" value="" style="edgeStyle=orthogonalEdgeStyle;rounded=0;orthogonalLoop=1;jettySize=auto;html=1;" edge="1" parent="wc70yV6YJI5TDV-RJmFz-52" source="wc70yV6YJI5TDV-RJmFz-90" target="wc70yV6YJI5TDV-RJmFz-94">
          <mxGeometry relative="1" as="geometry" />
        </mxCell>
        <mxCell id="wc70yV6YJI5TDV-RJmFz-90" value="&lt;span style=&quot;font-size:11.0pt;line-height:107%;&lt;br/&gt;font-family:&amp;quot;Calibri&amp;quot;,sans-serif;mso-ascii-theme-font:minor-latin;mso-fareast-font-family:&lt;br/&gt;Calibri;mso-fareast-theme-font:minor-latin;mso-hansi-theme-font:minor-latin;&lt;br/&gt;mso-bidi-font-family:Arial;mso-bidi-theme-font:minor-bidi;mso-ansi-language:&lt;br/&gt;ES-GT;mso-fareast-language:EN-US;mso-bidi-language:AR-SA&quot;&gt;Generar el reporte&amp;nbsp;&lt;/span&gt;" style="rounded=1;whiteSpace=wrap;html=1;" vertex="1" parent="wc70yV6YJI5TDV-RJmFz-52">
          <mxGeometry x="926" y="212" width="150" height="83" as="geometry" />
        </mxCell>
        <mxCell id="wc70yV6YJI5TDV-RJmFz-94" value="&lt;span style=&quot;font-size: 14.6667px;&quot;&gt;Se envia reporte generado a stakeholder&lt;/span&gt;" style="rounded=1;whiteSpace=wrap;html=1;" vertex="1" parent="wc70yV6YJI5TDV-RJmFz-52">
          <mxGeometry x="1182" y="212" width="150" height="83" as="geometry" />
        </mxCell>
        <mxCell id="wc70yV6YJI5TDV-RJmFz-61" value="&lt;font style=&quot;font-size: 24px;&quot;&gt;Administrador&lt;/font&gt;" style="swimlane;horizontal=0;whiteSpace=wrap;html=1;" vertex="1" parent="1">
          <mxGeometry x="-371" y="1455" width="2931" height="571" as="geometry" />
        </mxCell>
        <mxCell id="wc70yV6YJI5TDV-RJmFz-82" value="" style="edgeStyle=orthogonalEdgeStyle;rounded=0;orthogonalLoop=1;jettySize=auto;html=1;" edge="1" parent="wc70yV6YJI5TDV-RJmFz-61" source="wc70yV6YJI5TDV-RJmFz-78" target="wc70yV6YJI5TDV-RJmFz-81">
          <mxGeometry relative="1" as="geometry" />
        </mxCell>
        <mxCell id="wc70yV6YJI5TDV-RJmFz-78" value="" style="ellipse;fillColor=strokeColor;html=1;" vertex="1" parent="wc70yV6YJI5TDV-RJmFz-61">
          <mxGeometry x="93" y="54" width="65" height="65" as="geometry" />
        </mxCell>
        <mxCell id="wc70yV6YJI5TDV-RJmFz-84" value="" style="edgeStyle=orthogonalEdgeStyle;rounded=0;orthogonalLoop=1;jettySize=auto;html=1;" edge="1" parent="wc70yV6YJI5TDV-RJmFz-61" source="wc70yV6YJI5TDV-RJmFz-81" target="wc70yV6YJI5TDV-RJmFz-83">
          <mxGeometry relative="1" as="geometry" />
        </mxCell>
        <mxCell id="wc70yV6YJI5TDV-RJmFz-81" value="Iniciar sesión en el sistema SSAP" style="rounded=1;whiteSpace=wrap;html=1;" vertex="1" parent="wc70yV6YJI5TDV-RJmFz-61">
          <mxGeometry x="261" y="56.5" width="120" height="60" as="geometry" />
        </mxCell>
        <mxCell id="wc70yV6YJI5TDV-RJmFz-86" value="" style="edgeStyle=orthogonalEdgeStyle;rounded=0;orthogonalLoop=1;jettySize=auto;html=1;" edge="1" parent="wc70yV6YJI5TDV-RJmFz-61" source="wc70yV6YJI5TDV-RJmFz-83" target="wc70yV6YJI5TDV-RJmFz-85">
          <mxGeometry relative="1" as="geometry" />
        </mxCell>
        <mxCell id="wc70yV6YJI5TDV-RJmFz-83" value="&lt;span style=&quot;font-size:11.0pt;line-height:107%;&lt;br/&gt;font-family:&amp;quot;Calibri&amp;quot;,sans-serif;mso-ascii-theme-font:minor-latin;mso-fareast-font-family:&lt;br/&gt;Calibri;mso-fareast-theme-font:minor-latin;mso-hansi-theme-font:minor-latin;&lt;br/&gt;mso-bidi-font-family:Arial;mso-bidi-theme-font:minor-bidi;mso-ansi-language:&lt;br/&gt;ES-GT;mso-fareast-language:EN-US;mso-bidi-language:AR-SA&quot;&gt;Acceder a la interfaz&lt;br/&gt;de generar reporte&lt;/span&gt;" style="rounded=1;whiteSpace=wrap;html=1;" vertex="1" parent="wc70yV6YJI5TDV-RJmFz-61">
          <mxGeometry x="467" y="53" width="128" height="67" as="geometry" />
        </mxCell>
        <mxCell id="wc70yV6YJI5TDV-RJmFz-88" value="" style="edgeStyle=orthogonalEdgeStyle;rounded=0;orthogonalLoop=1;jettySize=auto;html=1;" edge="1" parent="wc70yV6YJI5TDV-RJmFz-61" source="wc70yV6YJI5TDV-RJmFz-85" target="wc70yV6YJI5TDV-RJmFz-87">
          <mxGeometry relative="1" as="geometry" />
        </mxCell>
        <mxCell id="wc70yV6YJI5TDV-RJmFz-85" value="&lt;span style=&quot;font-size:11.0pt;line-height:107%;&lt;br/&gt;font-family:&amp;quot;Calibri&amp;quot;,sans-serif;mso-ascii-theme-font:minor-latin;mso-fareast-font-family:&lt;br/&gt;Calibri;mso-fareast-theme-font:minor-latin;mso-hansi-theme-font:minor-latin;&lt;br/&gt;mso-bidi-font-family:Arial;mso-bidi-theme-font:minor-bidi;mso-ansi-language:&lt;br/&gt;ES-GT;mso-fareast-language:EN-US;mso-bidi-language:AR-SA&quot;&gt;Elegir el tipo de&lt;br/&gt;reporte a generar&amp;nbsp;&lt;/span&gt;" style="rounded=1;whiteSpace=wrap;html=1;" vertex="1" parent="wc70yV6YJI5TDV-RJmFz-61">
          <mxGeometry x="698" y="56.5" width="120" height="60" as="geometry" />
        </mxCell>
        <mxCell id="wc70yV6YJI5TDV-RJmFz-87" value="&lt;span style=&quot;font-size:11.0pt;line-height:107%;&lt;br/&gt;font-family:&amp;quot;Calibri&amp;quot;,sans-serif;mso-ascii-theme-font:minor-latin;mso-fareast-font-family:&lt;br/&gt;Calibri;mso-fareast-theme-font:minor-latin;mso-hansi-theme-font:minor-latin;&lt;br/&gt;mso-bidi-font-family:Arial;mso-bidi-theme-font:minor-bidi;mso-ansi-language:&lt;br/&gt;ES-GT;mso-fareast-language:EN-US;mso-bidi-language:AR-SA&quot;&gt;Definir el periodo de&lt;br/&gt;tiempo que cubrirá el reporte&lt;/span&gt;" style="rounded=1;whiteSpace=wrap;html=1;" vertex="1" parent="wc70yV6YJI5TDV-RJmFz-61">
          <mxGeometry x="927" y="45" width="150" height="83" as="geometry" />
        </mxCell>
        <mxCell id="wc70yV6YJI5TDV-RJmFz-89" value="&lt;font style=&quot;font-size: 24px;&quot;&gt;NOTIFICACION&lt;/font&gt;" style="swimlane;horizontal=0;whiteSpace=wrap;html=1;" vertex="1" parent="1">
          <mxGeometry x="-371" y="2598" width="2932" height="571" as="geometry" />
        </mxCell>
        <mxCell id="wc70yV6YJI5TDV-RJmFz-92" value="&lt;span style=&quot;font-size: 14.6667px;&quot;&gt;Se Notifica recepcion de reporte&lt;/span&gt;" style="rounded=1;whiteSpace=wrap;html=1;" vertex="1" parent="wc70yV6YJI5TDV-RJmFz-89">
          <mxGeometry x="1197" y="86" width="120" height="60" as="geometry" />
        </mxCell>
        <mxCell id="wc70yV6YJI5TDV-RJmFz-79" value="" style="ellipse;html=1;shape=endState;fillColor=strokeColor;" vertex="1" parent="wc70yV6YJI5TDV-RJmFz-89">
          <mxGeometry x="2602" y="83.5" width="65" height="65" as="geometry" />
        </mxCell>
        <mxCell id="wc70yV6YJI5TDV-RJmFz-99" value="" style="edgeStyle=orthogonalEdgeStyle;rounded=0;orthogonalLoop=1;jettySize=auto;html=1;" edge="1" parent="wc70yV6YJI5TDV-RJmFz-89" source="wc70yV6YJI5TDV-RJmFz-80" target="wc70yV6YJI5TDV-RJmFz-79">
          <mxGeometry relative="1" as="geometry" />
        </mxCell>
        <mxCell id="wc70yV6YJI5TDV-RJmFz-80" value="" style="html=1;points=[];perimeter=orthogonalPerimeter;fillColor=strokeColor;" vertex="1" parent="wc70yV6YJI5TDV-RJmFz-89">
          <mxGeometry x="2534" y="76" width="5" height="80" as="geometry" />
        </mxCell>
        <mxCell id="wc70yV6YJI5TDV-RJmFz-101" style="edgeStyle=orthogonalEdgeStyle;rounded=0;orthogonalLoop=1;jettySize=auto;html=1;entryX=0.343;entryY=0.5;entryDx=0;entryDy=0;entryPerimeter=0;" edge="1" parent="wc70yV6YJI5TDV-RJmFz-89" source="wc70yV6YJI5TDV-RJmFz-92" target="wc70yV6YJI5TDV-RJmFz-80">
          <mxGeometry relative="1" as="geometry" />
        </mxCell>
        <mxCell id="wc70yV6YJI5TDV-RJmFz-91" style="edgeStyle=orthogonalEdgeStyle;rounded=0;orthogonalLoop=1;jettySize=auto;html=1;entryX=0.5;entryY=0;entryDx=0;entryDy=0;" edge="1" parent="1" source="wc70yV6YJI5TDV-RJmFz-87" target="wc70yV6YJI5TDV-RJmFz-90">
          <mxGeometry relative="1" as="geometry" />
        </mxCell>
        <mxCell id="wc70yV6YJI5TDV-RJmFz-96" style="edgeStyle=orthogonalEdgeStyle;rounded=0;orthogonalLoop=1;jettySize=auto;html=1;" edge="1" parent="1" source="wc70yV6YJI5TDV-RJmFz-94" target="wc70yV6YJI5TDV-RJmFz-92">
          <mxGeometry relative="1" as="geometry" />
        </mxCell>
        <mxCell id="wc70yV6YJI5TDV-RJmFz-97" value="&lt;span style=&quot;white-space: pre;&quot;&gt;&#x9;&lt;/span&gt;&lt;font style=&quot;font-size: 24px;&quot;&gt;STAKEHOLDER&lt;/font&gt;" style="swimlane;horizontal=0;whiteSpace=wrap;html=1;" vertex="1" parent="1">
          <mxGeometry x="-371.5" y="3171" width="2932" height="571" as="geometry" />
        </mxCell>
        <mxCell id="wc70yV6YJI5TDV-RJmFz-104" value="" style="edgeStyle=orthogonalEdgeStyle;rounded=0;orthogonalLoop=1;jettySize=auto;html=1;" edge="1" parent="wc70yV6YJI5TDV-RJmFz-97" source="wc70yV6YJI5TDV-RJmFz-98" target="wc70yV6YJI5TDV-RJmFz-102">
          <mxGeometry relative="1" as="geometry" />
        </mxCell>
        <mxCell id="wc70yV6YJI5TDV-RJmFz-98" value="Iniciar sesión en el sistema SSAP" style="rounded=1;whiteSpace=wrap;html=1;" vertex="1" parent="wc70yV6YJI5TDV-RJmFz-97">
          <mxGeometry x="1197" y="86" width="120" height="60" as="geometry" />
        </mxCell>
        <mxCell id="wc70yV6YJI5TDV-RJmFz-106" value="" style="edgeStyle=orthogonalEdgeStyle;rounded=0;orthogonalLoop=1;jettySize=auto;html=1;" edge="1" parent="wc70yV6YJI5TDV-RJmFz-97" source="wc70yV6YJI5TDV-RJmFz-102" target="wc70yV6YJI5TDV-RJmFz-105">
          <mxGeometry relative="1" as="geometry" />
        </mxCell>
        <mxCell id="wc70yV6YJI5TDV-RJmFz-102" value="&lt;span style=&quot;font-size:11.0pt;line-height:107%;&lt;br/&gt;font-family:&amp;quot;Calibri&amp;quot;,sans-serif;mso-ascii-theme-font:minor-latin;mso-fareast-font-family:&lt;br/&gt;Calibri;mso-fareast-theme-font:minor-latin;mso-hansi-theme-font:minor-latin;&lt;br/&gt;mso-bidi-font-family:Arial;mso-bidi-theme-font:minor-bidi;mso-ansi-language:&lt;br/&gt;ES-GT;mso-fareast-language:EN-US;mso-bidi-language:AR-SA&quot;&gt;Acceder a la sección&lt;br/&gt;de reportes del proyecto&lt;/span&gt;" style="rounded=1;whiteSpace=wrap;html=1;" vertex="1" parent="wc70yV6YJI5TDV-RJmFz-97">
          <mxGeometry x="1409.5" y="86" width="120" height="60" as="geometry" />
        </mxCell>
        <mxCell id="wc70yV6YJI5TDV-RJmFz-109" value="" style="edgeStyle=orthogonalEdgeStyle;rounded=0;orthogonalLoop=1;jettySize=auto;html=1;" edge="1" parent="wc70yV6YJI5TDV-RJmFz-97" source="wc70yV6YJI5TDV-RJmFz-105" target="wc70yV6YJI5TDV-RJmFz-108">
          <mxGeometry relative="1" as="geometry" />
        </mxCell>
        <mxCell id="wc70yV6YJI5TDV-RJmFz-105" value="&lt;span style=&quot;font-size:11.0pt;line-height:107%;&lt;br/&gt;font-family:&amp;quot;Calibri&amp;quot;,sans-serif;mso-ascii-theme-font:minor-latin;mso-fareast-font-family:&lt;br/&gt;Calibri;mso-fareast-theme-font:minor-latin;mso-hansi-theme-font:minor-latin;&lt;br/&gt;mso-bidi-font-family:Arial;mso-bidi-theme-font:minor-bidi;mso-ansi-language:&lt;br/&gt;ES-GT;mso-fareast-language:EN-US;mso-bidi-language:AR-SA&quot;&gt;Visualizar el reporte&lt;br/&gt;generado por el Administrador del Proyecto&lt;/span&gt;" style="rounded=1;whiteSpace=wrap;html=1;" vertex="1" parent="wc70yV6YJI5TDV-RJmFz-97">
          <mxGeometry x="1622.5" y="62.5" width="152.5" height="107" as="geometry" />
        </mxCell>
        <mxCell id="wc70yV6YJI5TDV-RJmFz-111" value="" style="edgeStyle=orthogonalEdgeStyle;rounded=0;orthogonalLoop=1;jettySize=auto;html=1;" edge="1" parent="wc70yV6YJI5TDV-RJmFz-97" source="wc70yV6YJI5TDV-RJmFz-108" target="wc70yV6YJI5TDV-RJmFz-110">
          <mxGeometry relative="1" as="geometry" />
        </mxCell>
        <mxCell id="wc70yV6YJI5TDV-RJmFz-108" value="&lt;span style=&quot;font-size:11.0pt;line-height:107%;&lt;br/&gt;font-family:&amp;quot;Calibri&amp;quot;,sans-serif;mso-ascii-theme-font:minor-latin;mso-fareast-font-family:&lt;br/&gt;Calibri;mso-fareast-theme-font:minor-latin;mso-hansi-theme-font:minor-latin;&lt;br/&gt;mso-bidi-font-family:Arial;mso-bidi-theme-font:minor-bidi;mso-ansi-language:&lt;br/&gt;ES-GT;mso-fareast-language:EN-US;mso-bidi-language:AR-SA&quot;&gt;Descargar o imprimir&lt;br/&gt;el reporte&amp;nbsp;&lt;/span&gt;" style="rounded=1;whiteSpace=wrap;html=1;" vertex="1" parent="wc70yV6YJI5TDV-RJmFz-97">
          <mxGeometry x="1865.5" y="86" width="120" height="60" as="geometry" />
        </mxCell>
        <mxCell id="wc70yV6YJI5TDV-RJmFz-115" style="edgeStyle=orthogonalEdgeStyle;rounded=0;orthogonalLoop=1;jettySize=auto;html=1;entryX=0;entryY=0.5;entryDx=0;entryDy=0;" edge="1" parent="wc70yV6YJI5TDV-RJmFz-97" source="wc70yV6YJI5TDV-RJmFz-110" target="wc70yV6YJI5TDV-RJmFz-114">
          <mxGeometry relative="1" as="geometry">
            <Array as="points">
              <mxPoint x="2131" y="270" />
            </Array>
          </mxGeometry>
        </mxCell>
        <mxCell id="wc70yV6YJI5TDV-RJmFz-116" value="SI" style="edgeLabel;html=1;align=center;verticalAlign=middle;resizable=0;points=[];" vertex="1" connectable="0" parent="wc70yV6YJI5TDV-RJmFz-115">
          <mxGeometry x="0.3231" y="-1" relative="1" as="geometry">
            <mxPoint as="offset" />
          </mxGeometry>
        </mxCell>
        <mxCell id="wc70yV6YJI5TDV-RJmFz-110" value="¿Hay dudas con el reporte?" style="rhombus;whiteSpace=wrap;html=1;" vertex="1" parent="wc70yV6YJI5TDV-RJmFz-97">
          <mxGeometry x="2068.5" y="54.5" width="124" height="123" as="geometry" />
        </mxCell>
        <mxCell id="wc70yV6YJI5TDV-RJmFz-114" value="&lt;span style=&quot;font-size: 14.6667px;&quot;&gt;Se contacta con el administrador&lt;/span&gt;" style="rounded=1;whiteSpace=wrap;html=1;" vertex="1" parent="wc70yV6YJI5TDV-RJmFz-97">
          <mxGeometry x="2364.5" y="240" width="120" height="60" as="geometry" />
        </mxCell>
        <mxCell id="wc70yV6YJI5TDV-RJmFz-103" style="edgeStyle=orthogonalEdgeStyle;rounded=0;orthogonalLoop=1;jettySize=auto;html=1;" edge="1" parent="1" source="wc70yV6YJI5TDV-RJmFz-92" target="wc70yV6YJI5TDV-RJmFz-98">
          <mxGeometry relative="1" as="geometry" />
        </mxCell>
        <mxCell id="wc70yV6YJI5TDV-RJmFz-112" style="edgeStyle=orthogonalEdgeStyle;rounded=0;orthogonalLoop=1;jettySize=auto;html=1;entryX=-0.04;entryY=0.825;entryDx=0;entryDy=0;entryPerimeter=0;" edge="1" parent="1" source="wc70yV6YJI5TDV-RJmFz-110" target="wc70yV6YJI5TDV-RJmFz-80">
          <mxGeometry relative="1" as="geometry" />
        </mxCell>
        <mxCell id="wc70yV6YJI5TDV-RJmFz-113" value="NO" style="edgeLabel;html=1;align=center;verticalAlign=middle;resizable=0;points=[];" vertex="1" connectable="0" parent="wc70yV6YJI5TDV-RJmFz-112">
          <mxGeometry x="-0.7329" y="4" relative="1" as="geometry">
            <mxPoint as="offset" />
          </mxGeometry>
        </mxCell>
        <mxCell id="wc70yV6YJI5TDV-RJmFz-117" style="edgeStyle=orthogonalEdgeStyle;rounded=0;orthogonalLoop=1;jettySize=auto;html=1;entryX=-0.171;entryY=0.164;entryDx=0;entryDy=0;entryPerimeter=0;" edge="1" parent="1" source="wc70yV6YJI5TDV-RJmFz-114" target="wc70yV6YJI5TDV-RJmFz-80">
          <mxGeometry relative="1" as="geometry" />
        </mxCell>
      </root>
    </mxGraphModel>
  </diagram>
</mxfile>
